<!-- Modified from Google's Material Icons https://fonts.google.com/icons
Google Material Icons are licensed under Apache License 2.0
https://developers.google.com/fonts/docs/material_icons#licensing
-->
<svg xmlns="http://www.w3.org/2000/svg" xmlns:xlink="http://www.w3.org/1999/xlink">
  <defs>
    <symbol id="i-add" viewBox="0 0 24 24"><!-- add_circle_outline -->
      <path d="M13 7h-2v4H7v2h4v4h2v-4h4v-2h-4V7zm-1-5C6.48 2 2 6.48 2 12s4.48 10 10 10 10-4.48 10-10S17.52 2 12 2zm0 18c-4.41 0-8-3.59-8-8s3.59-8 8-8 8 3.59 8 8-3.59 8-8 8z"/>
    </symbol>
    <symbol id="i-play" viewBox="0 0 24 24"><!-- play-circle-outline -->
      <path d="M0 0h24v24H0z" fill="none"/><path d="M10 16.5l6-4.5-6-4.5v9zM12 2C6.48 2 2 6.48 2 12s4.48 10 10 10 10-4.48 10-10S17.52 2 12 2zm0 18c-4.41 0-8-3.59-8-8s3.59-8 8-8 8 3.59 8 8-3.59 8-8 8z"/>
    </symbol>
    <symbol id="i-player" viewBox="0 0 24 24"><!-- speaker-wireless -->
      <path d="m20.07 19.07-1.41-1.41c1.45-1.44 2.34-3.45 2.34-5.66 0-2.22-0.89-4.22-2.34-5.66l1.41-1.41c1.81 1.81 2.93 4.31 2.93 7.07s-1.12 5.26-2.93 7.07m-2.83-2.83-1.41-1.41c0.72-0.72 1.17-1.72 1.17-2.83s-0.45-2.11-1.17-2.83l1.41-1.41c1.09 1.09 1.76 2.59 1.76 4.24s-0.67 3.15-1.76 4.24m-13.24-13.24h8a2 2 0 0 1 2 2v14a2 2 0 0 1-2 2h-8a2 2 0 0 1-2-2v-14a2 2 0 0 1 2-2m4 2a2 2 0 0 0-2 2 2 2 0 0 0 2 2 2 2 0 0 0 2-2 2 2 0 0 0-2-2m0 6a4 4 0 0 0-4 4 4 4 0 0 0 4 4 4 4 0 0 0 4-4 4 4 0 0 0-4-4m0 2a2 2 0 0 1 2 2 2 2 0 0 1-2 2 2 2 0 0 1-2-2 2 2 0 0 1 2-2z"/>
    </symbol>
    <symbol id="i-download" viewBox="0 0 24 24"><!-- save-alt -->
      <path d="M0 0h24v24H0z" fill="none"/><path d="M19 12v7H5v-7H3v7c0 1.1.9 2 2 2h14c1.1 0 2-.9 2-2v-7h-2zm-6 .67l2.59-2.58L17 11.5l-5 5-5-5 1.41-1.41L11 12.67V3h2z"/>
    </symbol>
    <symbol id="i-playlist" viewBox="0 0 24 24"><!-- queue_music -->
      <path d="M15,6H3v2h12V6z M15,10H3v2h12V10z M3,16h8v-2H3V16z M17,6v8.18C16.69,14.07,16.35,14,16,14c-1.66,0-3,1.34-3,3s1.34,3,3,3 s3-1.34,3-3V8h3V6H17z"/>
    </symbol>
    <symbol id="i-song" viewBox="0 0 24 24"><!-- music_note -->
      <path d="M0 0h24v24H0z" fill="none"/><path d="M12 3v10.55c-.59-.34-1.27-.55-2-.55-2.21 0-4 1.79-4 4s1.79 4 4 4 4-1.79 4-4V7h4V3h-6z"/>
    </symbol>
    <symbol id="i-nomusic" viewBox="0 -960 960 960"><!-- music off -->
      <path d="M792-56 56-792l56-56 736 736-56 56ZM560-514l-80-80v-246h240v160H560v166ZM400-120q-66 0-113-47t-47-113q0-66 47-113t113-47q23 0 42.5 5.5T480-418v-62l80 80v120q0 66-47 113t-113 47Z"/>
    </symbol>
    <symbol id="i-settings" viewBox="0 -960 960 960"><!-- settings -->
      <path d="m370-80-16-128q-13-5-24.5-12T307-235l-119 50L78-375l103-78q-1-7-1-13.5v-27q0-6.5 1-13.5L78-585l110-190 119 50q11-8 23-15t24-12l16-128h220l16 128q13 5 24.5 12t22.5 15l119-50 110 190-103 78q1 7 1 13.5v27q0 6.5-2 13.5l103 78-110 190-118-50q-11 8-23 15t-24 12L590-80H370Zm70-80h79l14-106q31-8 57.5-23.5T639-327l99 41 39-68-86-65q5-14 7-29.5t2-31.5q0-16-2-31.5t-7-29.5l86-65-39-68-99 42q-22-23-48.5-38.5T533-694l-13-106h-79l-14 106q-31 8-57.5 23.5T321-633l-99-41-39 68 86 64q-5 15-7 30t-2 32q0 16 2 31t7 30l-86 65 39 68 99-42q22 23 48.5 38.5T427-266l13 106Zm42-180q58 0 99-41t41-99q0-58-41-99t-99-41q-59 0-99.5 41T342-480q0 58 40.5 99t99.5 41Zm-2-140Z"/>
    </symbol>
  </defs>
</svg>
